<svg xmlns="http://www.w3.org/2000/svg" width="32" height="32" viewBox="0 0 32 32">
  <defs>
    <linearGradient id="m" x1="0" y1="0" x2="1" y2="1">
      <stop offset="0" stop-color="#fff2c0"/><stop offset=".5" stop-color="#d9a948"/><stop offset="1" stop-color="#7a4f0e"/>
    </linearGradient>
    <linearGradient id="c" x1="0" y1="0" x2="0" y2="1">
      <stop offset="0" stop-color="#8a2a1a"/><stop offset="1" stop-color="#4a1208"/>
    </linearGradient>
  </defs>
  <!-- Panzerhandschuh mit ausgestrecktem Zeigefinger -->
  <path d="M11 2.2 C12.7 2.2 13.9 3.4 13.9 5.1 L13.9 12.6 C14.4 11.9 15.2 11.5 16.1 11.5 C17.5 11.5 18.5 12.4 18.7 13.6
           C19.1 13.1 19.8 12.7 20.6 12.7 C22 12.7 23.1 13.7 23.1 15.1 C23.5 14.8 24 14.6 24.6 14.6 C26 14.6 27 15.7 27 17.1
           L27 21.5 C27 25.3 24.3 28 20.6 28 L16.4 28 C13.9 28 12.1 26.8 10.7 24.8 L6 18.1 C5.2 17 5.5 15.5 6.6 14.8
           C7.6 14.1 9 14.4 9.7 15.3 L8.1 13.2 L8.1 5.1 C8.1 3.4 9.3 2.2 11 2.2 Z"
        fill="url(#m)" stroke="#2a1804" stroke-width="1.5" stroke-linejoin="round"/>
  <!-- Fingerglieder (Plattenkanten) -->
  <path d="M8.3 6.8 H13.8 M8.3 10.2 H13.8 M14 15.2 H18.6 M18.8 16 H23 M23.2 17.4 H26.8" stroke="#6e4a10" stroke-width="1" stroke-linecap="round"/>
  <!-- Stulpe -->
  <path d="M11.2 24.6 L20.9 27.9 L19.9 30.6 L10 27.3 Z" fill="url(#c)" stroke="#2a1804" stroke-width="1.2" stroke-linejoin="round"/>
  <path d="M9.4 3.9 C9.8 3.3 10.4 3 11 3" stroke="#fffbe6" stroke-width="1" stroke-linecap="round" fill="none" opacity=".85"/>
</svg>
